<svg width="128" height="128" viewBox="0 0 128 128" fill="none" xmlns="http://www.w3.org/2000/svg">
<g clip-path="url(#clip0_141_46)">
<rect width="128" height="128" rx="4" fill="#D9D9D9"/>
<path d="M0 12H128V125C128 126.657 126.657 128 125 128H3C1.34315 128 0 126.657 0 125V12Z" fill="#6D6D6D"/>
<line opacity="0.5" x1="0.664391" y1="126.629" x2="127.664" y2="11.6294" stroke="white"/>
<line opacity="0.5" x1="-13.3351" y1="110.629" x2="110.665" y2="-1.37106" stroke="white"/>
<line opacity="0.5" x1="-1.33514" y1="69.6289" x2="122.665" y2="-42.3711" stroke="white"/>
<line opacity="0.5" x1="-13.3351" y1="52.6289" x2="110.665" y2="-59.3711" stroke="white"/>
<path opacity="0.5" d="M9.5 205L133.5 93" stroke="white"/>
<path opacity="0.5" d="M-13.3408 194.629L143 54.5" stroke="white"/>
<line opacity="0.5" x1="1.66439" y1="153.629" x2="128.664" y2="38.6294" stroke="white"/>
<path d="M0 3C0 1.34315 1.34315 0 3 0H125C126.657 0 128 1.34315 128 3V12H0V3Z" fill="#9A9A9A"/>
<g filter="url(#filter0_d_141_46)">
<circle cx="5.5" cy="6.5" r="3.5" fill="#FF6159" fill-opacity="0.5" shape-rendering="crispEdges"/>
</g>
<g filter="url(#filter1_d_141_46)">
<circle cx="15.5" cy="6.5" r="3.5" fill="#FFBD2E" fill-opacity="0.5" shape-rendering="crispEdges"/>
</g>
<g filter="url(#filter2_d_141_46)">
<circle cx="25.5" cy="6.5" r="3.5" fill="#28C941" fill-opacity="0.5" shape-rendering="crispEdges"/>
</g>
</g>
<defs>
<filter id="filter0_d_141_46" x="-2" y="-1" width="17" height="17" filterUnits="userSpaceOnUse" color-interpolation-filters="sRGB">
<feFlood flood-opacity="0" result="BackgroundImageFix"/>
<feColorMatrix in="SourceAlpha" type="matrix" values="0 0 0 0 0 0 0 0 0 0 0 0 0 0 0 0 0 0 127 0" result="hardAlpha"/>
<feOffset dx="1" dy="1"/>
<feGaussianBlur stdDeviation="2.5"/>
<feComposite in2="hardAlpha" operator="out"/>
<feColorMatrix type="matrix" values="0 0 0 0 0 0 0 0 0 0 0 0 0 0 0 0 0 0 0.25 0"/>
<feBlend mode="normal" in2="BackgroundImageFix" result="effect1_dropShadow_141_46"/>
<feBlend mode="normal" in="SourceGraphic" in2="effect1_dropShadow_141_46" result="shape"/>
</filter>
<filter id="filter1_d_141_46" x="8" y="-1" width="17" height="17" filterUnits="userSpaceOnUse" color-interpolation-filters="sRGB">
<feFlood flood-opacity="0" result="BackgroundImageFix"/>
<feColorMatrix in="SourceAlpha" type="matrix" values="0 0 0 0 0 0 0 0 0 0 0 0 0 0 0 0 0 0 127 0" result="hardAlpha"/>
<feOffset dx="1" dy="1"/>
<feGaussianBlur stdDeviation="2.5"/>
<feComposite in2="hardAlpha" operator="out"/>
<feColorMatrix type="matrix" values="0 0 0 0 0 0 0 0 0 0 0 0 0 0 0 0 0 0 0.25 0"/>
<feBlend mode="normal" in2="BackgroundImageFix" result="effect1_dropShadow_141_46"/>
<feBlend mode="normal" in="SourceGraphic" in2="effect1_dropShadow_141_46" result="shape"/>
</filter>
<filter id="filter2_d_141_46" x="18" y="-1" width="17" height="17" filterUnits="userSpaceOnUse" color-interpolation-filters="sRGB">
<feFlood flood-opacity="0" result="BackgroundImageFix"/>
<feColorMatrix in="SourceAlpha" type="matrix" values="0 0 0 0 0 0 0 0 0 0 0 0 0 0 0 0 0 0 127 0" result="hardAlpha"/>
<feOffset dx="1" dy="1"/>
<feGaussianBlur stdDeviation="2.5"/>
<feComposite in2="hardAlpha" operator="out"/>
<feColorMatrix type="matrix" values="0 0 0 0 0 0 0 0 0 0 0 0 0 0 0 0 0 0 0.25 0"/>
<feBlend mode="normal" in2="BackgroundImageFix" result="effect1_dropShadow_141_46"/>
<feBlend mode="normal" in="SourceGraphic" in2="effect1_dropShadow_141_46" result="shape"/>
</filter>
<clipPath id="clip0_141_46">
<rect width="128" height="128" fill="white"/>
</clipPath>
</defs>
</svg>
